+8_US_stride3.mot
nRows=135
nColumns=3

name +8_US_stride3.mot
datacolumns 3
datarows 135
range 0.940000 1.610000
endheader
time	soleus_l	med_gas_l
        0.9400000000	       34.6302877030	       36.7365060550	
        0.9450000000	       34.3151323026	       36.5253420157	
        0.9500000000	       34.0547319200	       36.2634815340	
        0.9550000000	       33.8516182968	       35.9347301271	
        0.9600000000	       33.7244586205	       35.6387169580	
        0.9650000000	       33.6159110984	       35.3134255170	
        0.9700000000	       33.4918858008	       34.8546352691	
        0.9750000000	       33.3970075890	       34.4268487827	
        0.9800000000	       33.3450255830	       34.0441223229	
        0.9850000000	       33.3465029351	       33.7678376487	
        0.9900000000	       33.3825045575	       33.5731878132	
        0.9950000000	       33.4522096958	       33.4321780665	
        1.0000000000	       33.5543322553	       33.2706662955	
        1.0050000000	       33.6494639438	       33.0705802797	
        1.0100000000	       33.6842364692	       32.8150218139	
        1.0150000000	       33.6078583561	       32.4854087686	
        1.0200000000	       33.3816638868	       32.0468291126	
        1.0250000000	       33.1223467351	       31.6754159261	
        1.0300000000	       32.8072720094	       31.2952876707	
        1.0350000000	       32.3608589223	       30.8152909200	
        1.0400000000	       31.9502587627	       30.4122634855	
        1.0450000000	       31.5859090809	       30.0912515239	
        1.0500000000	       31.3380968704	       29.9057563173	
        1.0550000000	       31.1445900673	       29.7832485372	
        1.0600000000	       30.8979586356	       29.6582672868	
        1.0650000000	       30.6542748352	       29.5367286174	
        1.0700000000	       30.4126748882	       29.3866570143	
        1.0750000000	       30.1833418085	       29.1870699635	
        1.0800000000	       29.9999069443	       28.9563782852	
        1.0850000000	       29.8889665187	       28.7612302381	
        1.0900000000	       29.7961364969	       28.5115101289	
        1.0950000000	       29.7359925583	       28.2477496042	
        1.1000000000	       29.6972285621	       28.0095922642	
        1.1050000000	       29.6368895356	       27.7463850756	
        1.1100000000	       29.5138928687	       27.4919665614	
        1.1150000000	       29.3563204688	       27.2824510505	
        1.1200000000	       29.1240769244	       27.0541327946	
        1.1250000000	       28.7026080344	       26.7340870099	
        1.1300000000	       28.1809855529	       26.4174009938	
        1.1350000000	       27.5570563143	       26.1119078924	
        1.1400000000	       26.8759513227	       25.8547443074	
        1.1450000000	       26.2721311925	       25.6903953673	
        1.1500000000	       25.7922810909	       25.5997114992	
        1.1550000000	       25.2094958334	       25.5520354017	
        1.1600000000	       24.6832963797	       25.5540443279	
        1.1650000000	       24.2578749565	       25.5704902709	
        1.1700000000	       23.9540915157	       25.5747906235	
        1.1750000000	       23.7874304916	       25.5351611792	
        1.1800000000	       23.6418898348	       25.4393723110	
        1.1850000000	       23.5295603662	       25.2588324429	
        1.1900000000	       23.4508540060	       25.0272259832	
        1.1950000000	       23.3869563834	       24.7808853862	
        1.2000000000	       23.3348356818	       24.5657570395	
        1.2050000000	       23.3324240805	       24.4493905236	
        1.2100000000	       23.3369498086	       24.4091887935	
        1.2150000000	       23.4389042614	       24.4162624670	
        1.2200000000	       23.6614101332	       24.5226417151	
        1.2250000000	       24.0239831376	       24.6871569648	
        1.2300000000	       24.5575292182	       24.8793581146	
        1.2350000000	       25.1526634741	       25.0391988877	
        1.2400000000	       25.7126119035	       25.1510560852	
        1.2450000000	       26.5270063258	       25.2643811842	
        1.2500000000	       27.3802078700	       25.3400977569	
        1.2550000000	       28.1603211604	       25.3890150316	
        1.2600000000	       28.8156840488	       25.4317735606	
        1.2650000000	       29.2789400945	       25.4892925145	
        1.2700000000	       29.5359963380	       25.5638161722	
        1.2750000000	       29.7507815968	       25.6873188214	
        1.2800000000	       29.9602837611	       25.9075471469	
        1.2850000000	       30.1789306552	       26.1981144640	
        1.2900000000	       30.4703520480	       26.5385914570	
        1.2950000000	       30.8681252260	       26.9230958429	
        1.3000000000	       31.2439245128	       27.2350864402	
        1.3050000000	       31.5979765900	       27.4992624265	
        1.3100000000	       32.0500110515	       27.8129224440	
        1.3150000000	       32.4079195783	       28.0545630778	
        1.3200000000	       32.6498067345	       28.2275019056	
        1.3250000000	       32.7408236744	       28.3213644914	
        1.3300000000	       32.7583514215	       28.3644928725	
        1.3350000000	       32.7100242306	       28.3921428597	
        1.3400000000	       32.6210815152	       28.4261569172	
        1.3450000000	       32.5635917001	       28.4914017644	
        1.3500000000	       32.5537412383	       28.6220402818	
        1.3550000000	       32.6433598881	       28.8220206639	
        1.3600000000	       32.7694448974	       29.0059585130	
        1.3650000000	       32.9744567030	       29.2387992229	
        1.3700000000	       33.2999106166	       29.5293691419	
        1.3750000000	       33.6654188221	       29.7800760853	
        1.3800000000	       34.0539764183	       29.9746682371	
        1.3850000000	       34.4201699043	       30.0889247738	
        1.3900000000	       34.6844597269	       30.1050853407	
        1.3950000000	       34.8875662601	       30.1034313045	
        1.4000000000	       35.1078037369	       30.0370898254	
        1.4050000000	       35.2773594904	       29.9334786425	
        1.4100000000	       35.4127873545	       29.8116911177	
        1.4150000000	       35.5341068279	       29.6841681842	
        1.4200000000	       35.6462321631	       29.5630738580	
        1.4250000000	       35.7368213062	       29.4659876036	
        1.4300000000	       35.8485152724	       29.3310036820	
        1.4350000000	       35.9617523637	       29.1512705673	
        1.4400000000	       36.0418053641	       28.9431265655	
        1.4450000000	       36.0826914671	       28.7173540011	
        1.4500000000	       36.0829827026	       28.5523045571	
        1.4550000000	       36.0797639774	       28.4199819881	
        1.4600000000	       36.0724801059	       28.3569193446	
        1.4650000000	       36.1166421139	       28.4522387454	
        1.4700000000	       36.2530292264	       28.7370516421	
        1.4750000000	       36.4994869049	       29.1901960091	
        1.4800000000	       36.7757351420	       29.6573887591	
        1.4850000000	       37.0635056060	       30.1249462333	
        1.4900000000	       37.4525601791	       30.7657124120	
        1.4950000000	       37.7878846016	       31.3936959267	
        1.5000000000	       38.0053545887	       31.9800210696	
        1.5050000000	       38.0559610642	       32.5183202086	
        1.5100000000	       38.0104243593	       32.9734056151	
        1.5150000000	       37.8742109180	       33.2947302503	
        1.5200000000	       37.6467062887	       33.6782366889	
        1.5250000000	       37.3453564220	       34.0881949942	
        1.5300000000	       37.0441396750	       34.4813045430	
        1.5350000000	       36.7619822114	       34.8909527443	
        1.5400000000	       36.5287539852	       35.3199853793	
        1.5450000000	       36.3976674948	       35.6510575185	
        1.5500000000	       36.3035870219	       35.9752493016	
        1.5550000000	       36.2232660736	       36.3669231862	
        1.5600000000	       36.1620475715	       36.6767981431	
        1.5650000000	       36.0678881244	       36.8938615774	
        1.5700000000	       35.9488204920	       36.9739303340	
        1.5750000000	       35.7982445626	       36.9991041344	
        1.5800000000	       35.5398455038	       36.9408193755	
        1.5850000000	       35.2563495756	       36.8236021741	
        1.5900000000	       34.9899329634	       36.6711310370	
        1.5950000000	       34.7714277510	       36.5121881091	
        1.6000000000	       34.6243659578	       36.3776813510	
        1.6050000000	       34.5477547354	       36.2911800763	
        1.6100000000	       34.4933031466	       36.2118475207	
